<svg height="495pt" viewBox="0 -32 495.99959 495" width="495pt" xmlns="http://www.w3.org/2000/svg"><path d="m203.414062 382.195312c-36.203124-17.324218-59.292968-53.847656-59.414062-93.984374 0-2.496094.085938-4.972657.265625-7.429688.3125-4.417969-3.015625-8.253906-7.433594-8.570312-4.417969-.3125-8.253906 3.015624-8.566406 7.433593-.160156 2.824219-.265625 5.695313-.265625 8.566407.140625 46.308593 26.773438 88.449218 68.542969 108.441406 3.992187 1.898437 8.765625.199218 10.664062-3.792969 1.898438-3.992187.199219-8.765625-3.792969-10.664063zm0 0"/><path d="m367.695312 279.644531c-.3125-4.417969-4.148437-7.746093-8.566406-7.433593-4.417968.316406-7.746094 4.152343-7.433594 8.570312.203126 2.457031.304688 4.933594.304688 7.429688-.125 40.144531-23.21875 76.671874-59.433594 93.992187-3.992187 1.898437-5.691406 6.667969-3.792968 10.660156 1.894531 3.992188 6.667968 5.691407 10.660156 3.796875 41.777344-19.988281 68.425781-62.132812 68.566406-108.449218 0-2.871094-.105469-5.742188-.304688-8.566407zm0 0"/><path d="m307.433594 202.851562c3.625 2.527344 8.609375 1.636719 11.136718-1.988281 2.527344-3.625 1.640626-8.609375-1.988281-11.136719-41.21875-28.683593-95.9375-28.683593-137.160156 0-3.625 2.527344-4.511719 7.511719-1.984375 11.136719s7.511719 4.515625 11.136719 1.988281c35.722656-24.851562 83.136719-24.851562 118.859375 0zm0 0"/><path d="m494.929688 420.210938-240-416c-1.542969-2.316407-4.144532-3.710938-6.929688-3.710938s-5.386719 1.394531-6.929688 3.710938l-240 416c-1.425781 2.476562-1.425781 5.527343 0 8 1.429688 2.476562 4.070313 4 6.929688 4h480c2.859375 0 5.5-1.523438 6.929688-4 1.425781-2.472657 1.425781-5.523438 0-8zm-134.929688-188c0 8.839843-7.164062 16-16 16s-16-7.160157-16-16c0-8.835938 7.164062-16 16-16s16 7.164062 16 16zm-208-16c8.835938 0 16 7.164062 16 16 0 8.839843-7.164062 16-16 16s-16-7.160157-16-16c0-8.835938 7.164062-16 16-16zm80 184c0-8.835938 7.164062-16 16-16s16 7.164062 16 16c0 8.839843-7.164062 16-16 16s-16-7.160157-16-16zm43.550781 16c2.878907-4.839844 4.414063-10.363282 4.449219-16 0-17.671876-14.328125-32-32-32s-32 14.328124-32 32c.03125 5.636718 1.570312 11.160156 4.449219 16h-198.601563l100.082032-173.460938c5.390624 15.339844 21.445312 24.183594 37.292968 20.539062 15.847656-3.644531 26.429688-18.609374 24.578125-34.765624-1.847656-16.15625-15.539062-28.34375-31.800781-28.3125-1.972656.019531-3.941406.21875-5.878906.59375l101.878906-176.59375 101.878906 176.59375c-11.972656-2.332032-24.230468 2.34375-31.605468 12.058593-7.378907 9.714844-8.589844 22.777344-3.125 33.683594 5.464843 10.90625 16.652343 17.757813 28.851562 17.664063 13.566406-.039063 25.625-8.648438 30.070312-21.460938l100.082032 173.460938zm0 0"/><path d="m248 256.210938c-17.671875 0-32 14.328124-32 32 0 17.675781 14.328125 32 32 32s32-14.324219 32-32c0-17.671876-14.328125-32-32-32zm0 48c-8.835938 0-16-7.160157-16-16 0-8.835938 7.164062-16 16-16s16 7.164062 16 16c0 8.839843-7.164062 16-16 16zm0 0"/></svg>